<svg width="64" height="71" fill="none" xmlns="http://www.w3.org/2000/svg"><path d="M32 48.338a11.926 11.926 0 0 1-5.605-1.376 12.457 12.457 0 0 1-4.39-3.877L14 47.868c.305.365.665.676 1.067.918l14.244 8.541A5.725 5.725 0 0 0 32 58c.935 0 1.856-.23 2.689-.673l14.244-8.54A4.248 4.248 0 0 0 50 47.867L42.016 43a12.466 12.466 0 0 1-4.388 3.929A11.929 11.929 0 0 1 32 48.338ZM19.467 35.449c.008-3.036 1.188-5.964 3.315-8.223 2.128-2.259 5.053-3.69 8.218-4.022V14a4.92 4.92 0 0 0-1.37.49l-14.848 8.163a6.121 6.121 0 0 0-1.961 2.005A5.798 5.798 0 0 0 12 27.286v16.326c.007.471.086.939.235 1.388l8.345-4.592a11.767 11.767 0 0 1-1.113-4.959ZM49.365 22.647 35.297 14.49A4.5 4.5 0 0 0 34 14v9.178c1.911.217 3.745.884 5.353 1.945a12.328 12.328 0 0 1 3.907 4.164 12.426 12.426 0 0 1 .611 11.124L51.778 45A4.82 4.82 0 0 0 52 43.613V27.297a6.023 6.023 0 0 0-.773-2.637 5.982 5.982 0 0 0-1.862-2.013Z" fill="#414042"/><path d="M59.612 14.471 36.388 1.041a9.777 9.777 0 0 0-8.776 0L4.388 14.47A9.706 9.706 0 0 0 0 22.06V48.92a9.739 9.739 0 0 0 4.388 7.609L27.612 69.96a9.778 9.778 0 0 0 8.777 0l23.223-13.431A9.726 9.726 0 0 0 64 48.92V22.06a9.718 9.718 0 0 0-4.388-7.588Zm-2.982 31.36a7.509 7.509 0 0 1-3.38 5.843l-17.89 10.34a7.47 7.47 0 0 1-6.74 0l-17.87-10.34a7.5 7.5 0 0 1-3.38-5.843V25.169a7.509 7.509 0 0 1 3.38-5.843l17.848-10.34a7.47 7.47 0 0 1 6.74 0l17.89 10.34a7.5 7.5 0 0 1 3.402 5.843v20.662Z" fill="#414042"/><path d="M23 35.5c0 1.681.528 3.325 1.517 4.722a8.91 8.91 0 0 0 4.039 3.131 9.494 9.494 0 0 0 5.2.484 9.175 9.175 0 0 0 4.608-2.327 8.365 8.365 0 0 0 2.463-4.352 8.063 8.063 0 0 0-.512-4.91A8.624 8.624 0 0 0 37 28.432 9.381 9.381 0 0 0 32 27c-2.387 0-4.676.895-6.364 2.49C23.948 31.084 23 33.246 23 35.5Z" fill="#414042"/></svg>