<svg width="37" height="37" fill="none" xmlns="http://www.w3.org/2000/svg"><path d="M18.253 22.928a4.6 4.6 0 0 1-2.545-.768 4.562 4.562 0 0 1-1.688-2.044 4.531 4.531 0 0 1 .994-4.964 4.604 4.604 0 0 1 4.992-.987 4.576 4.576 0 0 1 2.055 1.677c.504.749.772 1.63.772 2.53a4.557 4.557 0 0 1-1.346 3.217 4.609 4.609 0 0 1-3.234 1.339Zm0-7.627c-.611 0-1.208.18-1.716.518a3.075 3.075 0 0 0-1.138 1.378 3.055 3.055 0 0 0 .67 3.347 3.095 3.095 0 0 0 3.366.666 3.085 3.085 0 0 0 1.386-1.131 3.06 3.06 0 0 0-.384-3.878 3.097 3.097 0 0 0-2.184-.9Z" fill="#95E1D3"/><path d="M18.253 28.017a9.738 9.738 0 0 1-5.389-1.625 9.657 9.657 0 0 1-3.572-4.329 9.594 9.594 0 0 1-.552-5.572 9.628 9.628 0 0 1 2.655-4.938 9.716 9.716 0 0 1 4.965-2.64 9.75 9.75 0 0 1 5.604.55 9.688 9.688 0 0 1 4.353 3.551 9.606 9.606 0 0 1-1.206 12.178 9.726 9.726 0 0 1-6.858 2.825Zm0-17.805a8.24 8.24 0 0 0-4.56 1.375 8.171 8.171 0 0 0-3.022 3.663 8.12 8.12 0 0 0-.467 4.715 8.147 8.147 0 0 0 2.246 4.178 8.221 8.221 0 0 0 4.202 2.233 8.25 8.25 0 0 0 4.741-.464 8.197 8.197 0 0 0 3.683-3.006 8.128 8.128 0 0 0 1.383-4.533 8.152 8.152 0 0 0-2.408-5.767 8.245 8.245 0 0 0-5.798-2.394Z" fill="#95E1D3"/><path d="M18.253 33.106c-2.93 0-5.796-.864-8.232-2.483a14.752 14.752 0 0 1-5.457-6.612 14.657 14.657 0 0 1-.843-8.513 14.708 14.708 0 0 1 4.055-7.544 14.843 14.843 0 0 1 7.586-4.032 14.894 14.894 0 0 1 8.56.838 14.799 14.799 0 0 1 6.65 5.427 14.675 14.675 0 0 1 2.497 8.186 14.707 14.707 0 0 1-4.344 10.414 14.874 14.874 0 0 1-10.472 4.32Zm0-27.983c-2.636 0-5.212.777-7.403 2.233a13.266 13.266 0 0 0-4.908 5.946 13.18 13.18 0 0 0-.758 7.655 13.228 13.228 0 0 0 3.647 6.785 13.348 13.348 0 0 0 6.822 3.626c2.585.511 5.264.249 7.699-.754a13.309 13.309 0 0 0 5.98-4.88 13.197 13.197 0 0 0 1.23-12.432 13.244 13.244 0 0 0-2.888-4.299 13.33 13.33 0 0 0-4.322-2.872 13.39 13.39 0 0 0-5.1-1.008Z" fill="#95E1D3"/></svg>