<svg width="37" height="36" fill="none" xmlns="http://www.w3.org/2000/svg"><path d="M18.253 33.475a3.716 3.716 0 0 1-2.835-1.306l-1.313-1.483a2.252 2.252 0 0 0-1.82-.787l-2 .178a3.75 3.75 0 0 1-2.943-1.069 3.707 3.707 0 0 1-1.086-2.922l.06-2.033a2.2 2.2 0 0 0-.791-1.87l-1.492-1.29a3.696 3.696 0 0 1-1.323-2.827 3.677 3.677 0 0 1 1.323-2.826l1.492-1.306a2.242 2.242 0 0 0 .79-1.84l-.148-2.033A3.69 3.69 0 0 1 7.24 7.135a3.733 3.733 0 0 1 2.94-1.08l2.014.104a2.235 2.235 0 0 0 1.88-.727l1.298-1.484a3.712 3.712 0 0 1 2.88-1.365 3.718 3.718 0 0 1 2.835 1.306L22.4 5.373a2.282 2.282 0 0 0 1.82.786l2-.178a3.75 3.75 0 0 1 2.942 1.069 3.706 3.706 0 0 1 1.086 2.922l-.06 2.033a2.2 2.2 0 0 0 .791 1.87l1.492 1.29a3.697 3.697 0 0 1 1.323 2.827 3.677 3.677 0 0 1-1.323 2.827l-1.492 1.305a2.24 2.24 0 0 0-.79 1.84l.178 2.003a3.69 3.69 0 0 1-1.074 2.927 3.735 3.735 0 0 1-2.94 1.08l-2.043-.075a2.25 2.25 0 0 0-1.88.787l-1.299 1.483a3.713 3.713 0 0 1-2.835 1.32l-.044-.014Zm-5.82-5.06a3.72 3.72 0 0 1 2.835 1.306l1.313 1.484a2.191 2.191 0 0 0 1.701.786 2.311 2.311 0 0 0 1.716-.786l1.299-1.484a3.64 3.64 0 0 1 3.133-1.306l2.014.149a2.205 2.205 0 0 0 2.277-1.451c.11-.305.153-.63.126-.953l-.15-2.033a3.646 3.646 0 0 1 1.284-3.13l1.492-1.306a2.183 2.183 0 0 0 .82-1.662 2.273 2.273 0 0 0-.79-1.706l-1.493-1.291a3.617 3.617 0 0 1-1.313-3.146l.15-2.003a2.184 2.184 0 0 0-.642-1.75 2.24 2.24 0 0 0-1.776-.639l-2.044.149a3.66 3.66 0 0 1-3.148-1.276l-1.313-1.484a2.191 2.191 0 0 0-1.671-.816 2.309 2.309 0 0 0-1.716.786l-1.298 1.484a3.69 3.69 0 0 1-3.163 1.306l-2.015-.149a2.22 2.22 0 0 0-2.402 2.449l.149 1.988a3.646 3.646 0 0 1-1.283 3.13l-1.492 1.306a2.183 2.183 0 0 0-.821 1.662 2.274 2.274 0 0 0 .79 1.706l1.493 1.291a3.617 3.617 0 0 1 1.313 3.146l-.15 2.003a2.185 2.185 0 0 0 .642 1.75 2.24 2.24 0 0 0 1.776.639l2.044-.149h.313Z" fill="#95E1D3"/><path d="M18.253 23.222a5.237 5.237 0 0 1-3.693-1.52 5.178 5.178 0 0 1-1.53-3.673c0-1.377.55-2.698 1.53-3.672a5.237 5.237 0 0 1 3.693-1.521c1.385 0 2.713.547 3.692 1.521a5.178 5.178 0 0 1 1.53 3.672c0 1.377-.55 2.698-1.53 3.672a5.237 5.237 0 0 1-3.692 1.521Zm0-8.902c-.99 0-1.939.39-2.638 1.086a3.699 3.699 0 0 0 0 5.246 3.74 3.74 0 0 0 5.275 0 3.699 3.699 0 0 0 0-5.246 3.74 3.74 0 0 0-2.637-1.086Z" fill="#95E1D3"/></svg>