<svg width="37" height="37" fill="none" xmlns="http://www.w3.org/2000/svg"><path d="M18.253 33.812c-3.043 0-6.017-.897-8.547-2.578a15.317 15.317 0 0 1-5.666-6.865 15.218 15.218 0 0 1-.875-8.839 15.271 15.271 0 0 1 4.21-7.832A15.41 15.41 0 0 1 15.25 3.51a15.464 15.464 0 0 1 8.889.87 15.365 15.365 0 0 1 6.904 5.635 15.236 15.236 0 0 1 2.592 8.499 15.27 15.27 0 0 1-4.51 10.812 15.442 15.442 0 0 1-10.873 4.485Zm0-29.111c-2.748 0-5.434.81-7.718 2.328a13.831 13.831 0 0 0-5.116 6.2 13.742 13.742 0 0 0-.79 7.98 13.79 13.79 0 0 0 3.8 7.073 13.915 13.915 0 0 0 7.114 3.78c2.694.534 5.487.26 8.026-.785a13.875 13.875 0 0 0 6.234-5.088 13.76 13.76 0 0 0 2.341-7.674 13.804 13.804 0 0 0-4.077-9.76 13.961 13.961 0 0 0-9.814-4.054Z" fill="#95E1D3"/><path d="M12.448 24.45a4.12 4.12 0 0 1-2.28-.688 4.086 4.086 0 0 1-1.51-1.831 4.06 4.06 0 0 1 .889-4.447 4.124 4.124 0 0 1 4.472-.885c.75.31 1.39.832 1.841 1.503a4.064 4.064 0 0 1-.51 5.152 4.106 4.106 0 0 1-2.902 1.196Zm0-6.677c-.52 0-1.027.154-1.458.443a2.583 2.583 0 0 0-.36 4.016 2.616 2.616 0 0 0 2.87.514 2.608 2.608 0 0 0 1.156-.989c.278-.436.418-.946.403-1.462a2.604 2.604 0 0 0-.769-1.832 2.633 2.633 0 0 0-1.842-.765v.075ZM24.057 24.45a4.12 4.12 0 0 1-2.28-.688 4.086 4.086 0 0 1-1.511-1.831 4.06 4.06 0 0 1 .89-4.447 4.124 4.124 0 0 1 4.472-.885c.749.31 1.39.832 1.84 1.503a4.064 4.064 0 0 1-.51 5.152 4.115 4.115 0 0 1-2.901 1.196Zm0-6.677c-.516 0-1.021.152-1.45.437a2.584 2.584 0 0 0-.396 3.995 2.616 2.616 0 0 0 2.845.563 2.61 2.61 0 0 0 1.172-.956c.287-.427.44-.93.44-1.443a2.584 2.584 0 0 0-.738-1.884 2.612 2.612 0 0 0-1.873-.787v.075ZM3.958 16.081a.75.75 0 0 1-.73-.593.753.753 0 0 1 .581-.876c.164-.03 16.309-3.516 20.65-9.451a.746.746 0 0 1 1.21.875c-4.686 6.395-20.845 9.882-21.547 10.03l-.164.015Z" fill="#95E1D3"/><path d="M28.697 13.618a30.209 30.209 0 0 1-10.743-2.36.746.746 0 0 1-.388-.978.746.746 0 0 1 .985-.386c.075 0 7.073 3.1 12.952 2.003a.764.764 0 0 1 .88.594.738.738 0 0 1-.597.86 16.123 16.123 0 0 1-3.089.267ZM20.7 21.037h-4.894a.748.748 0 0 1-.746-.742.755.755 0 0 1 .746-.742H20.7a.763.763 0 0 1 .746.742.748.748 0 0 1-.746.742ZM9.091 21.037H3.734a.748.748 0 0 1-.746-.742.755.755 0 0 1 .746-.742h5.357a.748.748 0 0 1 .746.742.748.748 0 0 1-.746.742ZM32.786 21.037h-5.372a.748.748 0 0 1-.746-.742.748.748 0 0 1 .746-.742h5.372a.748.748 0 0 1 .746.742.74.74 0 0 1-.746.742Z" fill="#95E1D3"/></svg>