<svg width="27" height="31" viewBox="0 0 27 31" fill="none" xmlns="http://www.w3.org/2000/svg">
<path d="M14.0871 15.6273C12.5707 15.6273 11.0883 15.1776 9.82744 14.3351C8.56657 13.4927 7.58385 12.2952 7.00353 10.8942C6.42322 9.4932 6.27138 7.95157 6.56722 6.46428C6.86306 4.97698 7.5933 3.61081 8.66558 2.53853C9.73786 1.46625 11.104 0.736015 12.5913 0.440174C14.0786 0.144332 15.6202 0.296169 17.0212 0.876483C18.4223 1.4568 19.6197 2.43953 20.4622 3.70039C21.3047 4.96126 21.7544 6.44364 21.7544 7.96008C21.7507 9.99242 20.9417 11.9405 19.5046 13.3776C18.0675 14.8146 16.1195 15.6236 14.0871 15.6273ZM14.0871 1.68689C12.8464 1.68689 11.6336 2.05481 10.6019 2.74411C9.57031 3.43342 8.76626 4.41316 8.29146 5.55943C7.81665 6.70571 7.69243 7.96704 7.93448 9.18392C8.17653 10.4008 8.77399 11.5186 9.65131 12.3959C10.5286 13.2732 11.6464 13.8707 12.8633 14.1127C14.0802 14.3548 15.3415 14.2306 16.4878 13.7557C17.634 13.2809 18.6138 12.4769 19.3031 11.4453C19.9924 10.4137 20.3603 9.2008 20.3603 7.96008C20.3566 6.29746 19.6945 4.70399 18.5189 3.52833C17.3432 2.35268 15.7497 1.69057 14.0871 1.68689Z" fill="white"/>
<path d="M1.54075 26.7796C1.35589 26.7796 1.1786 26.7062 1.04788 26.5755C0.917167 26.4448 0.843731 26.2675 0.843731 26.0826C0.84742 22.9411 2.09702 19.9293 4.3184 17.7079C6.53979 15.4866 9.55157 14.237 12.6931 14.2333H15.4812C15.666 14.2333 15.8433 14.3067 15.974 14.4374C16.1048 14.5681 16.1782 14.7454 16.1782 14.9303C16.1782 15.1152 16.1048 15.2924 15.974 15.4232C15.8433 15.5539 15.666 15.6273 15.4812 15.6273H12.6931C9.92016 15.6273 7.26081 16.7289 5.30006 18.6896C3.33931 20.6504 2.23777 23.3097 2.23777 26.0826C2.23777 26.2675 2.16434 26.4448 2.03362 26.5755C1.9029 26.7062 1.72561 26.7796 1.54075 26.7796Z" fill="white"/>
<path d="M20.3603 30.9618C20.1754 30.9618 19.9982 30.8883 19.8674 30.7576C19.7367 30.6269 19.6633 30.4496 19.6633 30.2648V19.1124C19.6633 18.9276 19.7367 18.7503 19.8674 18.6196C19.9982 18.4888 20.1754 18.4154 20.3603 18.4154C20.5452 18.4154 20.7225 18.4888 20.8532 18.6196C20.9839 18.7503 21.0573 18.9276 21.0573 19.1124V30.2648C21.0573 30.4496 20.9839 30.6269 20.8532 30.7576C20.7225 30.8883 20.5452 30.9618 20.3603 30.9618Z" fill="white"/>
<path d="M25.9365 25.3856H14.7841C14.5993 25.3856 14.422 25.3122 14.2913 25.1815C14.1606 25.0508 14.0871 24.8735 14.0871 24.6886C14.0871 24.5037 14.1606 24.3264 14.2913 24.1957C14.422 24.065 14.5993 23.9916 14.7841 23.9916H25.9365C26.1213 23.9916 26.2986 24.065 26.4293 24.1957C26.5601 24.3264 26.6335 24.5037 26.6335 24.6886C26.6335 24.8735 26.5601 25.0508 26.4293 25.1815C26.2986 25.3122 26.1213 25.3856 25.9365 25.3856Z" fill="white"/>
</svg>
