<svg width="50" height="50" viewBox="0 0 50 50" fill="none" xmlns="http://www.w3.org/2000/svg">
<path d="M25.7934 48.4075C21.9488 48.411 18.1596 47.4903 14.7452 45.7232C14.5801 45.6379 14.4334 45.5208 14.3135 45.3788C14.1936 45.2367 14.1029 45.0725 14.0465 44.8954C13.9901 44.7183 13.9691 44.5318 13.9847 44.3466C14.0004 44.1614 14.0524 43.981 14.1377 43.8159C14.2231 43.6508 14.3401 43.5041 14.4821 43.3842C14.6242 43.2643 14.7884 43.1736 14.9656 43.1171C15.1427 43.0607 15.3291 43.0398 15.5144 43.0554C15.6996 43.0711 15.8799 43.1231 16.045 43.2084C20.6183 45.535 25.8789 46.1282 30.8554 44.8784C35.8319 43.6286 40.1881 40.6203 43.1194 36.409C46.0508 32.1978 47.3593 27.068 46.8033 21.9672C46.2473 16.8664 43.8643 12.1391 40.0945 8.65826C36.3247 5.17746 31.4226 3.17833 26.2937 3.03009C21.1648 2.88184 16.1555 4.59449 12.191 7.85174C8.22639 11.109 5.57436 15.6908 4.72465 20.751C3.87495 25.8112 4.88498 31.0079 7.56819 35.3815C7.75747 35.7051 7.81317 36.0897 7.72349 36.4537C7.6338 36.8178 7.40579 37.1325 7.08784 37.3311C6.92854 37.4286 6.75151 37.4934 6.56699 37.522C6.38247 37.5506 6.19412 37.5423 6.01282 37.4976C5.83152 37.4529 5.66087 37.3728 5.51074 37.2618C5.36061 37.1507 5.23398 37.0111 5.13817 36.8508C2.03736 31.8853 0.856891 25.9582 1.81863 20.1836C2.78037 14.4089 5.81809 9.18437 10.3609 5.49185C14.9036 1.79934 20.6386 -0.106868 26.4879 0.131506C32.3373 0.36988 37.8981 2.73642 42.1254 6.78634C45.3899 9.81214 47.7494 13.6856 48.9404 17.9744C50.1315 22.2632 50.1073 26.7987 48.8706 31.0746C47.6338 35.3504 45.2332 39.1985 41.9365 42.1893C38.6399 45.1801 34.577 47.196 30.2013 48.0119C28.7477 48.2824 27.2719 48.4149 25.7934 48.4075V48.4075Z" fill="#95E1D3"/>
<path d="M3.86666 49.8768C3.31892 49.8665 2.78217 49.7214 2.30387 49.4542C1.82557 49.1871 1.42045 48.8063 1.12435 48.3454C0.828247 47.8844 0.650278 47.3577 0.606179 46.8116C0.56208 46.2656 0.653211 45.7171 0.871513 45.2146L5.16644 35.551C5.32631 35.2085 5.61434 34.9425 5.96846 34.8104C6.32258 34.6783 6.71444 34.6906 7.05959 34.8446C7.40008 34.9988 7.66559 35.2816 7.79799 35.6312C7.93039 35.9807 7.91888 36.3684 7.76599 36.7095L3.44282 46.3731C3.38779 46.4465 3.35805 46.5357 3.35805 46.6274C3.35805 46.7191 3.38779 46.8083 3.44282 46.8817C3.50454 46.9523 3.58559 47.0034 3.67597 47.0285C3.76636 47.0536 3.86211 47.0517 3.95142 47.023L14.83 43.1519C15.0041 43.0849 15.1899 43.0538 15.3763 43.0604C15.5628 43.0671 15.7459 43.1113 15.9148 43.1905C16.0837 43.2696 16.2349 43.3821 16.3592 43.5212C16.4835 43.6602 16.5785 43.8229 16.6384 43.9996C16.7656 44.3518 16.7478 44.7401 16.5889 45.0792C16.4299 45.4183 16.1428 45.6804 15.7907 45.808L4.9969 49.6791C4.63535 49.8133 4.25231 49.8803 3.86666 49.8768Z" fill="#95E1D3"/>
</svg>
